<svg version="1" xmlns="http://www.w3.org/2000/svg" width="1066.667" height="1066.667" viewBox="0 0 800.000000 800.000000"><path d="M343.8 93.6c-19.9 3-40.3 12.4-53.1 24.2-13.7 12.8-20.3 28.7-16.8 40.9l.9 3.2-9.1 5c-17.6 9.5-28.7 18.8-31.6 26.4-1.5 4-1.4 10.3.3 13.6 2 3.8 7.2 8.2 12.4 10.5 3.9 1.8 4.3 2.3 3.7 4.5-1.2 4.9-1.2 9.6.1 14.1.8 2.5 1.4 5 1.4 5.7 0 .7-2.5 4.1-5.7 7.5-12.9 14.4-26 33.9-31 46-5.4 13.4-7 28.7-4 37.6l1.5 4.2-4.2 1c-17.5 4.5-31.8 11-43.6 19.9-8.6 6.5-22.3 20.8-28.8 30.1-5.2 7.3-5.3 7.4-9.5 7.2-8.1-.5-13.3 4.9-16.4 16.9l-1.7 6.7-5.5.6c-16.3 1.9-22.5 15.7-15.9 35.2l2.4 7.1-3.9 4.4c-8.9 10-9.9 17.6-3.1 23.8 3.6 3.3 3.6 3.4 2.4 7.4-3.5 11.7-2.1 27 3.6 40.4 4.3 10 4.8 12.2 4.4 19.8-.9 18.9-.1 24.1 5 32.5 1.4 2.5 2.9 5.6 3.2 7 .4 1.4.9 3.4 1.1 4.5.3 1.1 1 4.2 1.7 7 1.6 7.2 7.8 17.7 16 26.9 7.8 8.8 32.9 26.6 47.6 33.7 10.3 5 27.1 14.5 35.1 20 2.3 1.6 7 4.2 10.5 5.8 6.7 3.1 31.6 11.9 35.8 12.7 1.4.3 4.5 1.1 7 1.9 8.1 2.5 16.1 3.6 37 5 17.3 1.1 34.7 4.2 48.5 8.6 9 2.9 11.3 3.2 22.5 3.3 11.4.1 19.9-.6 21.9-1.8.4-.3 1.8-.7 3.2-.9 6.7-1.3 31.7-10.8 36.1-13.9 1.4-1 2.9-1.8 3.2-1.8.3 0 3.6-2 7.3-4.4 11.7-7.5 24.7-13.6 31.9-15 8.1-1.7 21.2-5.3 27.4-7.8 7.8-3 33.7-15.9 38-18.8 10.1-7 29.7-19.4 34.6-22 3.2-1.7 9.5-5.3 13.9-8s8.7-5.2 9.5-5.6c.8-.4 4.1-2.5 7.2-4.6 3.1-2.1 6-3.8 6.4-3.8 1.7 0 13-11 16.8-16.4 3.7-5.2 9.6-16.4 9.6-18.2 0-.3 1.8-4.2 4.1-8.6 9-17.9 18.4-28.8 35.4-40.8 22.3-15.7 28.9-25.2 34-48.5.2-1.1 1.5-5 2.9-8.6 7.3-19.5 8.3-44.9 2.5-62.2l-2-5.8 5.5-5.2c10.5-10 9.3-19.6-3.5-27.9-4-2.6-4.9-3.6-4.4-5.3.3-1.1.9-9.3 1.2-18.2.7-17.9-.3-25.6-4.3-33.4l-2.4-4.8 2.5-4.3c2.8-4.9 3.2-9.6 1-13.8-1.6-3.1-6.1-6-9.3-6-2.9 0-3.2-.8-1.6-5.8 2.1-6.7 2.9-23 1.5-28.8l-1.2-4.7 3.6-2.9c7-5.8 8.5-13.2 3.8-18.9-3.4-4-7.7-5.8-17.2-7.3l-7.5-1.2-1.2-7.1c-4.6-27.2-21.4-49-44.5-57.7-11.7-4.4-22-6-38.5-6.1h-15.2l1.3-3.5c2.3-6.2 2.6-8.9 1.1-12.4-3.4-8.1-11.2-7.6-23.2 1.5-2.8 2.2-5.4 3.9-5.8 3.9-.4 0-3.4-2.4-6.6-5.3-23-20.8-63.4-31.3-100.2-26.1l-4.8.7v-5.2c0-4.5-.4-5.7-2.9-8.2-5-4.9-10.6-3.6-20.6 4.8l-6 5.1-5.6-2.8c-8.4-4.3-17-6.9-27.7-8.5-11.6-1.8-19.8-1.8-31.4.1zm-15 137.8l1 2.3-10.1.7c-12.5.8-25.1 2.9-35.7 6l-8.1 2.3 2.3-2.5c4.1-4.4 11.3-6.8 22.8-7.6 8.3-.6 19.6-2.1 26.1-3.5.3 0 1.1 1 1.7 2.3zm29.9 20.9c10.7 2.5 18.2 5.8 23.2 10.3 5.8 5.2 9.8 5.8 13.6 2 1.5-1.5 2.8-2 3.7-1.5.7.5 2.9.9 4.9.9 2.5 0 4.2.7 6 2.6 6.9 7.4 19.7 9.6 34.2 5.9 2.1-.6 2.7-.4 2.7.9 0 4 3.2 7.8 8.7 10.3 5.3 2.5 5.7 2.5 9 .9 3.4-1.6 3.5-1.6 7.9 1.5 9.5 6.5 24.6 11.8 33.9 11.9 2.4 0 3.5.8 5.7 4.3 4.2 6.6 14 15.5 20.5 18.5 4 1.8 8.1 2.8 13.5 3.2l7.8.5 4.5 6c2.5 3.3 6.2 9.3 8.1 13.3 2 3.9 4.4 7.7 5.4 8.2 5.1 2.7 12-1.1 12-6.7 0-1.5-1.8-6.1-3.9-10.1-2.8-5.2-3.4-7.1-2.3-6.7 1 .4 3.8 1 6.4 1.2 5 .6 5.1.7 6.3 7.3.4 1.9 1.4 5.9 2.3 8.8l1.6 5.3-5.1 5.2c-6.2 6.4-8.3 10.3-8.3 15.8 0 3.5.6 4.8 3.8 8 3.2 3.1 3.8 4.3 3.4 6.8-.8 5.5.7 9.9 4.8 14.3l4 4.1-1.7 4.6c-2.5 6.9-2.2 21 .5 28 1.2 3 2.1 5.5 1.9 5.6-.1.1-2.5 1.7-5.2 3.7-4.6 3.4-5.2 3.5-7.5 2.2-7.9-4.3-20.7 1-35.3 14.5-3.4 3.2-8.8 6.9-11.9 8.4-7.8 3.5-12.6 7.3-14.9 11.8L521 488l-6.8-3.8c-6.1-3.3-7.4-3.7-14.2-3.7-9.1 0-13.7 2.3-21.8 10.9l-5.4 5.6-4.3-4.8c-15.7-17.4-52.7-29.1-112-35.3-15.1-1.6-68-1.6-79.5-.1-7.6 1.1-8.5 1-9.4-.5-3.6-6.4-12.8-9.4-21.1-6.9-2.7.8-4.9 1.4-5 1.3-.5-2.6-4.1-6.7-7.2-8.2l-4-2-.5-7.1c-1.2-17.9-14.6-33.2-30.9-35.1-4.7-.5-6-1.2-9.5-4.9-5.9-6-13.3-9.5-21.8-10.3l-7-.6 5-4.4c17.5-15.4 34.2-23 55.1-25.1 9.6-.9 11.1-1.3 13.1-3.6 3.1-3.6 2.8-6.3-1.8-12.4-5.3-7.1-6.4-10.8-5.7-19.9.8-12 6.9-24.9 19.8-42.1 5.2-6.9 6.3-7.9 7.9-7 3.3 1.7 5.9 1.1 12.7-3 10.7-6.4 27.2-11.7 43.5-13.9 9.9-1.3 40.8-.6 48.5 1.2zm332.7 160.9c4.5 7.8 5.9 15.7 5.3 31.3-.5 16.4-3.1 26.2-9.6 36.2-6.6 10.2-15 14.7-25.2 13.6-2.5-.3-5.5-.1-6.6.5-1 .6-4.8 5.9-8.4 11.7l-6.4 10.7-.6-18.3c-.6-15.9-1.7-27-3.5-32.9-.3-1.1.7-2 2.9-2.8 9.4-3.4 14.8-14 17.3-34.1.5-4.4 1.4-6.2 4.6-9.7 2.2-2.4 6.1-5.7 8.6-7.4 4-2.6 5.4-3 11.8-3h7.3l2.5 4.2zm-300.1 69.7c21.5 3.8 35.2 9.7 44.7 19.1 6.6 6.5 9.9 12.9 11.1 22 .6 3.6 1.6 9.9 2.4 14 2.6 13 2.3 13.5-8.5 20.1-5.3 3.3-5.6 3.3-15.7 3.1-5.8-.1-11.2.2-12.3.8-1.7.9-3.1.1-9.2-5.1-22.3-18.8-40.2-26.7-58.3-25.6-11.2.6-18.2 2.8-41.1 12.9l-18.2 8-5-3.7c-6.4-4.5-13.7-7.1-23.6-8.4-4.3-.5-8.1-1.2-8.4-1.6-1.5-1.5-1.4-20.4.2-25.8 4.8-16.6 16.2-24 44.6-28.8 17.7-3 31.2-3.8 59.5-3.4 21 .2 28.2.7 37.8 2.4z"/><path d="M298.8 295.5c-21.5 4.1-40.1 16-47.5 30.5-3.6 7.2-3.9 17-.6 24.2 4.8 10.5 18.1 19.6 34.7 23.8 15.5 3.9 39.8 2.3 54.1-3.6 3.3-1.4 6.7-2.8 7.5-3.1.8-.4-1.6 2-5.4 5.3-9.9 8.4-18.1 18.6-22.9 28.3-3.7 7.5-4.2 9.4-4.5 16.6-.3 6.7 0 9.1 1.8 13.3 6.4 14.9 27.2 24.3 57.1 25.8l12.7.7 1.7-2.7c1.6-2.4 1.6-2.8.2-4.9-1.4-2.2-2.5-2.5-12.9-3.1-39.9-2.4-57.2-15.7-48.9-37.6 5.9-15.5 28.2-36.2 55.4-51.4 3.6-2.1 6.9-4.6 7.2-5.6.8-2.5-1.1-6-3.3-6.1-3.3-.2-4.8.3-12.8 5.1l-8.2 4.7 4-5.5c15.1-21.7 2.7-45.1-28.7-53.7-8.4-2.3-30.7-2.9-40.7-1zm40.7 9.5c18.5 5.8 29 17.2 27.1 29.3-.9 5.7-3.8 10.6-9.5 16.2l-5.1 4.9v-3c0-4.7-2.6-12.4-5.1-15-7.4-7.9-22.6 6.8-24.5 23.8-.8 6.8-.6 6.8-16.5 6.8-18.2 0-33.3-4.9-42.3-13.6-10.6-10.3-9.9-22.3 1.8-33.9 8.6-8.6 19.3-13.8 34.6-17.1 9.9-2 30.6-1.2 39.5 1.6zM469 329c-37.1 3.7-56.7 25.9-44 49.9 3.8 7.1 14.8 17.9 23.2 22.9 8.5 5 20.5 10 31.5 12.9 8.9 2.4 11.5 2.7 28.8 2.7 15.4.1 20.2-.3 25.5-1.7 16.5-4.7 29-14.1 32.5-24.6 9.5-28.6-31.1-59.7-81.5-62.4-4.7-.2-11.9-.1-16 .3zm20.1 8c30.8 2.9 59 17.4 68.1 35 3.4 6.6 3.2 15.2-.4 20.8-3.7 5.5-11.5 10.7-21.3 13.9-7.6 2.6-9 2.7-26.5 2.7-16.4 0-19.5-.3-27.5-2.5l-9-2.4.3-6c.4-7.4-2-19.3-5.3-26-5.1-10.4-12.2-13.8-17.1-8.1-2.3 2.6-5.6 12.3-6.9 20l-.6 3.9-4-3.9c-5.2-5-9.9-14.5-9.9-19.7 0-14.1 15.9-25.1 39.6-27.6 4.4-.5 8.4-.9 8.9-1 .6 0 5.8.4 11.6.9zM290.5 489.5c-3.5 3.4-3.3 7.9.5 11.5 7 6.6 24.7 15.5 38.9 19.6 17.1 5 35 4.3 64.6-2.2 20.6-4.6 22.5-5.6 22.5-11.9 0-3.7-1-5.5-4.1-7-2.5-1.4-4-1.2-17.1 1.9-21 5-28 6-41.3 6-18.3-.1-30.6-4-48.2-15.3-9-5.7-12.2-6.3-15.8-2.6z"/></svg>